<?xml version="1.0" standalone="no"?>
<!DOCTYPE svg PUBLIC "-//W3C//DTD SVG 20010904//EN"
 "http://www.w3.org/TR/2001/REC-SVG-20010904/DTD/svg10.dtd">
<svg version="1.0" xmlns="http://www.w3.org/2000/svg"
 width="256.000000pt" height="256.000000pt" viewBox="0 0 256.000000 256.000000"
 preserveAspectRatio="xMidYMid meet">
<metadata>
Created by potrace 1.11, written by Peter Selinger 2001-2013
</metadata>
<g transform="translate(0.000000,256.000000) scale(0.100000,-0.100000)"
fill="#000000" stroke="none">
<path d="M1126 2535 c-25 -23 -32 -58 -26 -132 l1 -23 -421 0 c-291 0 -428 -3
-443 -11 -54 -28 -57 -39 -57 -257 0 -223 6 -250 57 -270 36 -14 1964 -15
2002 -1 39 15 261 240 261 264 0 25 -223 250 -263 264 -18 7 -165 11 -401 11
l-374 0 -4 66 c-4 58 -8 70 -32 90 -25 22 -35 24 -150 24 -117 0 -124 -1 -150
-25z"/>
<path d="M1099 1713 c-1 -16 -1 -76 -1 -135 l0 -108 -41 0 c-23 -1 -190 -1
-372 -2 -181 -1 -345 -5 -363 -10 -37 -10 -272 -238 -272 -264 0 -25 209 -233
255 -255 38 -18 83 -19 1023 -19 l984 0 29 29 29 29 0 216 c0 213 0 215 -24
243 l-24 28 -424 2 c-232 1 -426 2 -430 2 -5 1 -8 62 -8 136 l0 135 -180 0
-180 0 -1 -27z"/>
<path d="M1097 463 c1 -203 2 -376 2 -386 1 -10 13 -29 27 -42 26 -24 33 -25
150 -25 115 0 125 1 151 24 l28 24 3 386 3 386 -183 0 -183 0 2 -367z"/>
</g>
</svg>
